PathFileType	4	(X/Y/Z)	RBDS010static.trc
DataRate	CameraRate	NumFrames	NumMarkers	Units	OrigDataRate	OrigDataStartFrame	OrigNumFrames
150.000000	150.000000	4	48	mm	150.000000	93	150
Frame#	Time	L.Ankle			L.Ankle.Medial			L.ASIS			L.GTR			L.Heel.Bottom			L.Heel.Lateral			L.Heel.Top			L.HF			L.Iliac.Crest			L.Knee			L.Knee.Medial			L.MT1			L.MT2			L.MT5			L.PSIS			L.Shank.Bottom.Lateral			L.Shank.Bottom.Medial			L.Shank.Top.Lateral			L.Shank.Top.Medial			L.Thigh.Bottom.Lateral			L.Thigh.Bottom.Medial			L.Thigh.Top.Lateral			L.Thigh.Top.Medial			L.TT			R.Ankle			R.Ankle.Medial			R.ASIS			R.GTR			R.Heel.Bottom			R.Heel.Lateral			R.Heel.Top			R.HF			R.Iliac.Crest			R.Knee			R.Knee.Medial			R.MT1			R.MT2			R.MT5			R.PSIS			R.Shank.Bottom.Lateral			R.Shank.Bottom.Medial			R.Shank.Top.Lateral			R.Shank.Top.Medial			R.Thigh.Bottom.Lateral			R.Thigh.Bottom.Medial			R.Thigh.Top.Lateral			R.Thigh.Top.Medial			R.TT			
		X1	Y1	Z1	X2	Y2	Z2	X3	Y3	Z3	X4	Y4	Z4	X5	Y5	Z5	X6	Y6	Z6	X7	Y7	Z7	X8	Y8	Z8	X9	Y9	Z9	X10	Y10	Z10	X11	Y11	Z11	X12	Y12	Z12	X13	Y13	Z13	X14	Y14	Z14	X15	Y15	Z15	X16	Y16	Z16	X17	Y17	Z17	X18	Y18	Z18	X19	Y19	Z19	X20	Y20	Z20	X21	Y21	Z21	X22	Y22	Z22	X23	Y23	Z23	X24	Y24	Z24	X25	Y25	Z25	X26	Y26	Z26	X27	Y27	Z27	X28	Y28	Z28	X29	Y29	Z29	X30	Y30	Z30	X31	Y31	Z31	X32	Y32	Z32	X33	Y33	Z33	X34	Y34	Z34	X35	Y35	Z35	X36	Y36	Z36	X37	Y37	Z37	X38	Y38	Z38	X39	Y39	Z39	X40	Y40	Z40	X41	Y41	Z41	X42	Y42	Z42	X43	Y43	Z43	X44	Y44	Z44	X45	Y45	Z45	X46	Y46	Z46	X47	Y47	Z47	X48	Y48	Z48	

94	0.62	710.489501953125	102.1281890869141	1038.59423828125	728.40771484375	118.3006134033203	1118.386596679688	813.130615234375	981.208740234375	1090.858520507813	705.2332763671875	892.22265625	1043.461547851563	637.5511474609375	39.71240234375	1083.023559570313	666.5685424804688	56.40673828125	1038.451049804688	647.390380859375	90.33970642089844	1084.291137695313	695.1271362304688	448.8887023925781	1029.102172851563	764.0175170898438	1065.800659179688	1061.186889648438	691.6760864257813	512.3247680664063	1033.312377929688	715.8382568359375	495.5326538085938	1157.512573242188	851.981201171875	55.97732925415039	1125.236450195313	864.4397583007813	69.28856658935547	1079.671264648438	829.0574340820313	50.94564819335938	1011.219787597656	645.634033203125	1028.779174804688	1165.856079101563	683.9935913085938	171.4097900390625	1034.343017578125	655.9393310546875	170.6687164306641	1080.526245117188	669.825439453125	249.7001647949219	1025.069458007813	641.6553344726563	249.9975280761719	1071.216430664063	693.6929931640625	598.0025024414063	1026.126953125	644.7340698242188	589.4324340820313	1079.20166015625	675.2307739257813	706.564208984375	1030.059326171875	630.727294921875	699.2593383789063	1081.739379882813	755.3318481445313	430.6517333984375	1065.903076171875	706.4949951171875	115.8625335693359	1402.70703125	724.727783203125	120.2200393676758	1320.026000976563	817.1337280273438	977.5250244140625	1321.876831054688	715.7864990234375	886.7030639648438	1377.01904296875	632.5765991210938	40.56449127197266	1369.11328125	660.91943359375	61.56973266601563	1412.278686523438	641.8172607421875	89.16892242431641	1367.43359375	719.6691284179688	445.5599365234375	1394.419555664063	749.7864990234375	1058.059326171875	1359.938598632813	719.713134765625	510.3554992675781	1389.66552734375	734.3699951171875	490.9869995117188	1266.737670898438	842.4977416992188	57.96764373779297	1323.564453125	859.5948486328125	73.0867919921875	1374.135375976563	824.3087768554688	50.87364196777344	1438.165893554688	647.9117431640625	1028.359741210938	1262.57275390625	696.8353881835938	188.203857421875	1408.31787109375	657.9019775390625	188.14697265625	1375.02197265625	691.3841552734375	272.86669921875	1411.9423828125	651.3145751953125	268.6040649414063	1376.337036132813	715.8545532226563	611.336181640625	1396.110473632813	661.9812622070313	603.2958984375	1346.016723632813	699.1195068359375	719.79248046875	1392.277954101563	648.8162841796875	713.41796875	1345.47021484375	779.6093139648438	436.8626708984375	1357.8642578125	
95	0.6266666666666667	710.4918212890625	102.1283721923828	1038.591674804688	728.3956909179688	118.3058242797852	1118.385131835938	813.0643920898438	981.2154541015625	1090.862915039063	705.1737060546875	892.2254638671875	1043.468139648438	637.5244750976563	39.71419525146484	1083.025268554688	666.5709838867188	56.40619277954102	1038.450439453125	647.3916625976563	90.34383392333984	1084.292724609375	695.0960083007813	448.8872680664063	1029.101440429688	763.9600830078125	1065.804443359375	1061.192504882813	691.650390625	512.3219604492188	1033.322021484375	715.7921142578125	495.529541015625	1157.531982421875	851.9749755859375	55.96794509887695	1125.2392578125	864.4387817382813	69.2906494140625	1079.674682617188	829.064208984375	50.94340133666992	1011.226745605469	645.5855712890625	1028.77294921875	1165.864990234375	683.9797973632813	171.4018402099609	1034.357055664063	655.9256591796875	170.6664123535156	1080.525512695313	669.8027954101563	249.6978302001953	1025.0810546875	641.6426391601563	249.9833526611328	1071.230712890625	693.6622314453125	597.9981689453125	1026.133178710938	644.7011108398438	589.427001953125	1079.207153320313	675.1766967773438	706.5519409179688	1030.072021484375	630.6812744140625	699.24951171875	1081.748291015625	755.3101806640625	430.6375732421875	1065.927490234375	706.4983520507813	115.8634414672852	1402.7080078125	724.7268676757813	120.2201385498047	1320.035888671875	817.0778198242188	977.5293579101563	1321.873413085938	715.7349243164063	886.7021484375	1377.023803710938	632.5795288085938	40.55976486206055	1369.110229492188	660.9142456054688	61.57745361328125	1412.2861328125	641.8146362304688	89.17291259765625	1367.435913085938	719.6355590820313	445.5626220703125	1394.42138671875	749.7401733398438	1058.06640625	1359.94482421875	719.6760864257813	510.3587341308594	1389.674682617188	734.347900390625	490.9861450195313	1266.737915039063	842.4971313476563	57.96674346923828	1323.578247070313	859.598876953125	73.08687591552734	1374.1396484375	824.3092651367188	50.88328170776367	1438.173706054688	647.8493041992188	1028.366943359375	1262.572387695313	696.8296508789063	188.1991424560547	1408.325073242188	657.8978271484375	188.1437072753906	1375.025146484375	691.3654174804688	272.8677673339844	1411.944702148438	651.3007202148438	268.6013488769531	1376.336791992188	715.8219604492188	611.3383178710938	1396.111694335938	661.9431762695313	603.2945556640625	1346.021606445313	699.080078125	719.793701171875	1392.2802734375	648.7677001953125	713.42578125	1345.4833984375	779.5875244140625	436.8773803710938	1357.859497070313	
96	0.6333333333333334	710.4767456054688	102.1367645263672	1038.578491210938	728.4071655273438	118.310302734375	1118.388061523438	813.0007934570313	981.2240600585938	1090.873657226563	705.1248779296875	892.218994140625	1043.4716796875	637.542724609375	39.70647430419922	1083.02880859375	666.5529174804688	56.41196060180664	1038.442993164063	647.3945922851563	90.34127044677734	1084.292724609375	695.0773315429688	448.8797607421875	1029.110717773438	763.903076171875	1065.809326171875	1061.197509765625	691.6116333007813	512.3331298828125	1033.321411132813	715.774169921875	495.543212890625	1157.52978515625	851.9685668945313	55.97913360595703	1125.243286132813	864.4344482421875	69.29493713378906	1079.677612304688	829.0634155273438	50.94694900512695	1011.225280761719	645.519287109375	1028.773193359375	1165.868774414063	683.9666137695313	171.4081878662109	1034.3564453125	655.9264526367188	170.6617126464844	1080.527465820313	669.7894897460938	249.6960906982422	1025.084594726563	641.6284790039063	249.9788665771484	1071.237426757813	693.6260986328125	597.994140625	1026.139892578125	644.66552734375	589.4193725585938	1079.208618164063	675.11865234375	706.5462646484375	1030.086669921875	630.6405639648438	699.2392578125	1081.758911132813	755.2742919921875	430.6519775390625	1065.9189453125	706.4833374023438	115.8659439086914	1402.707397460938	724.7176513671875	120.2255020141602	1320.030029296875	817.016357421875	977.5458374023438	1321.887573242188	715.6756591796875	886.701416015625	1377.019409179688	632.5746459960938	40.56637191772461	1369.118530273438	660.9161376953125	61.57231521606445	1412.285400390625	641.820556640625	89.17115783691406	1367.434204101563	719.6126708984375	445.563232421875	1394.421142578125	749.680419921875	1058.06494140625	1359.9423828125	719.6248779296875	510.3694458007813	1389.677490234375	734.3056640625	490.9912414550781	1266.7373046875	842.4888916015625	57.96297836303711	1323.571533203125	859.5874633789063	73.09731292724609	1374.136108398438	824.29931640625	50.88750839233398	1438.178588867188	647.7972412109375	1028.356811523438	1262.587158203125	696.8138427734375	188.2123565673828	1408.321411132813	657.8865966796875	188.1375427246094	1375.021118164063	691.345947265625	272.8622741699219	1411.939208984375	651.2838134765625	268.5960083007813	1376.328369140625	715.7833251953125	611.3397216796875	1396.118286132813	661.9053344726563	603.30078125	1346.027465820313	699.0291748046875	719.7898559570313	1392.293334960938	648.7151489257813	713.4290161132813	1345.478149414063	779.54052734375	436.8822631835938	1357.862426757813	
97	0.64	710.4744873046875	102.1270370483398	1038.586669921875	728.3972778320313	118.3005065917969	1118.381103515625	812.93896484375	981.239013671875	1090.8828125	705.0612182617188	892.22216796875	1043.474487304688	637.5482177734375	39.71218109130859	1083.028442382813	666.5677490234375	56.40619659423828	1038.454467773438	647.3881225585938	90.34323883056641	1084.289794921875	695.0546875	448.8682556152344	1029.11474609375	763.8428955078125	1065.815185546875	1061.199340820313	691.5845336914063	512.3213500976563	1033.322509765625	715.73876953125	495.513427734375	1157.526489257813	851.9552612304688	55.97811126708984	1125.246704101563	864.4290161132813	69.28422546386719	1079.676147460938	829.0645141601563	50.94944763183594	1011.222045898438	645.4598999023438	1028.775146484375	1165.879028320313	683.954833984375	171.4026489257813	1034.36328125	655.9185791015625	170.6540832519531	1080.53857421875	669.7682495117188	249.6930236816406	1025.093383789063	641.6140747070313	249.9690704345703	1071.248901367188	693.591552734375	598.0029907226563	1026.138916015625	644.6143188476563	589.4203491210938	1079.216552734375	675.0780029296875	706.5460205078125	1030.0927734375	630.5911254882813	699.2339477539063	1081.77587890625	755.252197265625	430.6502685546875	1065.931762695313	706.4855346679688	115.8661193847656	1402.704956054688	724.71142578125	120.2327041625977	1320.041381835938	816.9691772460938	977.546142578125	1321.88671875	715.6320190429688	886.7015991210938	1377.036987304688	632.5906982421875	40.56890106201172	1369.1259765625	660.9161987304688	61.57458114624023	1412.283935546875	641.8216552734375	89.16262054443359	1367.445190429688	719.5706176757813	445.5650634765625	1394.4375	749.6179809570313	1058.082275390625	1359.94677734375	719.5933227539063	510.3658752441406	1389.67529296875	734.27490234375	490.9881591796875	1266.743530273438	842.4872436523438	57.9742431640625	1323.573974609375	859.5909423828125	73.09825134277344	1374.152099609375	824.2969970703125	50.88493728637695	1438.176147460938	647.74267578125	1028.356323242188	1262.58447265625	696.80126953125	188.2115936279297	1408.322509765625	657.8765258789063	188.1302642822266	1375.019287109375	691.3244018554688	272.8607482910156	1411.95166015625	651.2695922851563	268.5900573730469	1376.331176757813	715.7394409179688	611.3394775390625	1396.11669921875	661.8600463867188	603.2962646484375	1346.029174804688	698.9744873046875	719.78955078125	1392.295166015625	648.6571044921875	713.4224853515625	1345.484008789063	779.5126953125	436.8826904296875	1357.870483398438	
